<svg width="22" height="22" viewBox="0 0 22 22" fill="none" xmlns="http://www.w3.org/2000/svg">
<path d="M19.8279 15.0799H7.03396L7.67634 13.7715L18.3498 13.7521C18.7107 13.7521 19.0201 13.4943 19.0845 13.1377L20.5627 4.86406C20.6013 4.64707 20.5433 4.42363 20.4015 4.25391C20.3315 4.17038 20.244 4.10309 20.1454 4.05672C20.0467 4.01034 19.9391 3.98599 19.8301 3.98535L6.25193 3.94023L6.13591 3.39453C6.06287 3.04648 5.74919 2.79297 5.39255 2.79297H2.07322C1.87208 2.79297 1.67918 2.87287 1.53695 3.0151C1.39472 3.15733 1.31482 3.35023 1.31482 3.55137C1.31482 3.75251 1.39472 3.94541 1.53695 4.08764C1.67918 4.22986 1.87208 4.30977 2.07322 4.30977H4.7781L5.28513 6.72031L6.53337 12.7639L4.92634 15.3871C4.84289 15.4997 4.79262 15.6335 4.78123 15.7732C4.76984 15.9129 4.79778 16.0531 4.86189 16.1777C4.9908 16.4334 5.25076 16.5945 5.53865 16.5945H6.88787C6.60023 16.9766 6.44487 17.4419 6.44529 17.9201C6.44529 19.1361 7.43357 20.1244 8.64958 20.1244C9.8656 20.1244 10.8539 19.1361 10.8539 17.9201C10.8539 17.441 10.6949 16.9748 10.4113 16.5945H13.8724C13.5848 16.9766 13.4294 17.4419 13.4299 17.9201C13.4299 19.1361 14.4181 20.1244 15.6342 20.1244C16.8502 20.1244 17.8385 19.1361 17.8385 17.9201C17.8385 17.441 17.6795 16.9748 17.3959 16.5945H19.8301C20.2469 16.5945 20.5885 16.2551 20.5885 15.8361C20.5872 15.6352 20.5065 15.4429 20.3641 15.3012C20.2216 15.1596 20.0288 15.08 19.8279 15.0799V15.0799ZM6.56775 5.43555L18.9385 5.47637L17.7267 12.2611L8.00935 12.2783L6.56775 5.43555ZM8.64958 18.599C8.27576 18.599 7.97068 18.2939 7.97068 17.9201C7.97068 17.5463 8.27576 17.2412 8.64958 17.2412C9.02341 17.2412 9.32849 17.5463 9.32849 17.9201C9.32849 18.1002 9.25696 18.2729 9.12964 18.4002C9.00232 18.5275 8.82964 18.599 8.64958 18.599V18.599ZM15.6342 18.599C15.2603 18.599 14.9552 18.2939 14.9552 17.9201C14.9552 17.5463 15.2603 17.2412 15.6342 17.2412C16.008 17.2412 16.3131 17.5463 16.3131 17.9201C16.3131 18.1002 16.2415 18.2729 16.1142 18.4002C15.9869 18.5275 15.8142 18.599 15.6342 18.599V18.599Z" fill="black"/>
</svg>
